<?xml version="1.0" standalone="no"?>
<!DOCTYPE svg PUBLIC "-//W3C//DTD SVG 20010904//EN"
 "http://www.w3.org/TR/2001/REC-SVG-20010904/DTD/svg10.dtd">
<svg version="1.0" xmlns="http://www.w3.org/2000/svg"
 width="100.000000pt" height="100.000000pt" viewBox="0 0 100.000000 100.000000"
 preserveAspectRatio="xMidYMid meet">
<metadata>
Created by potrace 1.14, written by Peter Selinger 2001-2017
</metadata>
<g transform="translate(0.000000,100.000000) scale(0.100000,-0.100000)"
fill="#000000" stroke="none">
<path d="M422 953 c-19 -9 -39 -24 -45 -34 -8 -13 -15 -15 -29 -8 -19 10 -68
2 -68 -11 0 -5 -18 1 -39 13 -35 19 -43 20 -75 9 -19 -7 -45 -15 -58 -17 -13
-3 -35 -18 -50 -35 -27 -29 -28 -34 -28 -140 0 -94 3 -113 19 -129 10 -10 24
-20 31 -23 10 -3 13 -43 15 -153 1 -83 5 -158 9 -168 5 -9 4 -23 -2 -30 -5 -6
-9 -43 -8 -81 2 -61 5 -71 30 -92 27 -24 29 -24 276 -24 269 0 291 4 311 51
11 27 15 29 67 29 128 0 188 69 191 222 2 56 -2 94 -11 107 -10 16 -10 23 0
33 19 19 14 87 -9 135 -29 60 -85 91 -167 95 -67 3 -76 13 -47 52 29 38 9 102
-34 113 -14 3 -33 12 -41 19 -33 28 -136 77 -170 81 -20 2 -50 -4 -68 -14z
m403 -387 c16 -12 19 -28 19 -139 1 -142 -6 -187 -32 -188 -18 -1 -33 -4 -69
-15 -22 -6 -22 -5 -25 122 -2 71 -2 153 0 182 l3 52 43 0 c23 0 51 -6 61 -14z"/>
</g>
</svg>
